Coordinates
version=1
nRows=13
nColumns=22
inDegrees=yes

Units are S.I. units (second, meters, Newtons, ...)
If the header above contains a line with 'inDegrees', this indicates whether rotational values are in degrees (yes) or radians (no).

endheader
time	pelvis_tilt	pelvis_list	pelvis_rotation	pelvis_tx	pelvis_ty	pelvis_tz	hip_flexion_r	hip_adduction_r	hip_rotation_r	knee_angle_r	ankle_angle_r	subtalar_angle_r	hip_flexion_l	hip_adduction_l	hip_rotation_l	knee_angle_l	ankle_angle_l	subtalar_angle_l	lumbar_extension	lumbar_bending	lumbar_rotation
      5.37000000	      2.15192182	     -0.70576782	    248.98533280	     -0.66332400	      1.06197311	     -0.10839049	     -3.74951786	     -7.47492303	     -5.06642618	    -42.00215679	     -6.35304173	     18.38118351	     15.73539912	      6.56236595	    -24.65899367	    -13.96743661	      4.40501805	    -11.51312618	     -2.15628872	     -8.78352206	     -1.33478210
      5.38000000	      2.37041530	     -0.64702919	    249.55895949	     -0.66354915	      1.06266246	     -0.09771926	     -2.60762023	     -7.77532243	     -4.43575182	    -44.04136125	     -7.70053336	     18.73417227	     15.11268754	      7.13611174	    -24.12206642	    -13.63496342	      4.75350370	    -11.28517426	     -2.03499495	     -9.00791731	     -1.62129732
      5.39000000	      2.58631724	     -0.61392583	    250.13845839	     -0.66359297	      1.06323939	     -0.08728158	     -1.47777964	     -8.11013231	     -3.90628671	    -45.94200165	     -8.52216457	     19.03438615	     14.49256935	      7.70857613	    -23.57484711	    -13.35192231	      5.07580296	    -11.15859094	     -1.97294410	     -9.22637447	     -1.88541232
      5.40000000	      2.82349197	     -0.55075463	    250.71569252	     -0.66343597	      1.06363865	     -0.07707617	     -0.30316815	     -8.47271796	     -3.41644905	    -47.67418850	     -8.68503668	     19.35133339	     13.92858262	      8.28982707	    -23.00196317	    -13.09038459	      5.42978743	    -11.08510305	     -1.89287309	     -9.43320864	     -2.14541593
      5.41000000	      3.04854570	     -0.42100239	    251.28011702	     -0.66310346	      1.06388326	     -0.06713760	      0.94567316	     -8.80333218	     -2.91952784	    -49.20695607	     -8.30730563	     19.67078890	     13.45831041	      8.82412375	    -22.42250441	    -12.87391426	      5.75772507	    -11.06420645	     -1.76545665	     -9.58316992	     -2.36716630
      5.42000000	      3.27404055	     -0.34845462	    251.87935352	     -0.66255635	      1.06414964	     -0.05731703	      2.11223903	     -9.18079438	     -2.51634626	    -50.50374181	     -7.42186292	     19.73417381	     12.93441359	      9.38488242	    -21.79617883	    -12.66786658	      6.06705416	    -11.11473398	     -1.71550838	     -9.73889737	     -2.60241003
      5.43000000	      3.47621933	     -0.22455832	    252.48960357	     -0.66186665	      1.06434340	     -0.04769633	      3.32426293	     -9.51569493	     -2.11279370	    -51.58081183	     -6.23174091	     19.64639395	     12.48079985	      9.89562804	    -21.12213259	    -12.51082987	      6.34068967	    -11.20493526	     -1.63038986	     -9.84444433	     -2.77267170
      5.44000000	      3.62423330	     -0.13625293	    253.14051280	     -0.66107573	      1.06464056	     -0.03809777	      4.44406442	     -9.80475079	     -1.74139686	    -52.40005211	     -4.86397435	     19.40102310	     11.96076544	     10.36322572	    -20.41076433	    -12.35047905	      6.60278860	    -11.30456097	     -1.59848560	     -9.89550119	     -2.96519859
      5.45000000	      3.69326690	     -0.08670141	    253.84853485	     -0.66022658	      1.06507788	     -0.02849545	      5.45767609	    -10.01907742	     -1.41607106	    -52.97246643	     -3.46759946	     18.97883603	     11.36669844	     10.75956748	    -19.61994428	    -12.20338530	      6.84668320	    -11.41939062	     -1.62699044	     -9.87548257	     -3.15727260
      5.46000000	      3.64706719	     -0.12268217	    254.63292363	     -0.65938392	      1.06577397	     -0.01878236	      6.28490619	    -10.12585608	     -1.14552535	    -53.28998185	     -2.15228789	     18.46107180	     10.61373741	     11.06042480	    -18.74114749	    -12.03432902	      7.08804420	    -11.52726549	     -1.76401206	     -9.76373820	     -3.38884825
      5.47000000	      3.46670892	     -0.27607189	    255.49430605	     -0.65858988	      1.06676939	     -0.00895999	      6.88698751	    -10.10948930	     -0.93628863	    -53.36643525	     -0.95833796	     17.81170341	      9.67667242	     11.24039033	    -17.77673477	    -11.86665318	      7.33118624	    -11.63603270	     -2.04924007	     -9.55002148	     -3.64425400
      5.48000000	      3.18090751	     -0.51351502	    256.43663385	     -0.65783099	      1.06799524	      0.00097691	      7.31245869	     -9.98475543	     -0.78330606	    -53.22577785	      0.08283202	     17.13856061	      8.58492629	     11.31556444	    -16.71344955	    -11.66453123	      7.57285236	    -11.72642236	     -2.42670238	     -9.24846189	     -3.95865280
      5.49000000	      2.82880790	     -0.83107423	    257.42126393	     -0.65708962	      1.06935132	      0.01088661	      7.60649871	     -9.78956596	     -0.65748780	    -52.91186881	      1.04508706	     16.34018539	      7.39342653	     11.30291433	    -15.63698227	    -11.47282443	      7.81959021	    -11.81503251	     -2.89339014	     -8.89370321	     -4.29247823
